<svg xmlns="http://www.w3.org/2000/svg" viewBox="0 0 32 32">
  <rect width="32" height="32" rx="6" fill="#1a1410"/>
  <g transform="translate(1.1, 0.5) scale(0.31)">
    <path d="M 19.46 15.66 c -0.49 0.24 -0.84 0.57 -1.04 0.98 l -0.21 0.4 -0.02 21.08 c 0 11.6 0 21.09 0.04 21.09 0.07 0 0.56 -0.5 1.1 -1.12 0.22 -0.26 0.42 -0.49 0.45 -0.51 0.02 -0.02 0.13 -0.14 0.24 -0.27 0.1 -0.13 0.34 -0.39 0.52 -0.58 0.17 -0.19 0.61 -0.68 0.97 -1.08 0.36 -0.41 0.85 -0.94 1.08 -1.19 0.24 -0.24 0.5 -0.54 0.59 -0.64 0.09 -0.12 0.44 -0.49 0.77 -0.85 0.33 -0.35 0.68 -0.73 0.77 -0.84 0.09 -0.11 0.2 -0.23 0.24 -0.27 0.04 -0.04 0.32 -0.35 0.63 -0.68 0.31 -0.34 0.57 -0.62 0.59 -0.64 0.02 -0.02 0.38 -0.41 0.8 -0.88 0.42 -0.47 0.86 -0.93 0.97 -1.05 0.1 -0.11 0.34 -0.37 0.52 -0.58 0.17 -0.2 0.36 -0.41 0.39 -0.45 0.04 -0.04 0.37 -0.39 0.74 -0.78 0.36 -0.39 0.8 -0.86 0.97 -1.04 0.17 -0.19 0.61 -0.66 0.97 -1.05 0.36 -0.39 0.76 -0.82 0.88 -0.95 0.11 -0.13 0.44 -0.49 0.72 -0.81 0.29 -0.31 0.6 -0.66 0.7 -0.78 0.22 -0.26 0.76 -1.12 0.76 -1.22 0 -0.04 0.05 -0.16 0.1 -0.26 0.33 -0.61 0.33 -0.42 0.31 -12.42 l -0.02 -11.25 -0.2 -0.39 c -0.24 -0.46 -0.62 -0.81 -1.07 -1 -0.51 -0.21 -13.84 -0.2 -14.26 0.02 z M 63.61 15.65 c -1.22 0.3 -2.08 0.7 -3.08 1.47 -0.53 0.4 -1.08 0.97 -3.18 3.3 -0.33 0.38 -0.72 0.81 -0.87 0.96 -0.14 0.15 -0.47 0.51 -0.74 0.81 -0.26 0.3 -0.5 0.56 -0.52 0.58 -0.02 0.02 -0.25 0.28 -0.52 0.58 -0.26 0.3 -0.62 0.68 -0.78 0.85 -0.16 0.17 -0.39 0.43 -0.52 0.58 -0.13 0.14 -0.56 0.63 -0.96 1.08 -0.4 0.44 -0.82 0.91 -0.93 1.05 -0.12 0.14 -0.37 0.41 -0.56 0.62 -0.19 0.2 -0.57 0.62 -0.84 0.91 -0.26 0.3 -0.64 0.7 -0.83 0.91 -0.19 0.2 -0.44 0.48 -0.55 0.61 -0.12 0.13 -0.49 0.53 -0.81 0.88 -0.33 0.35 -0.68 0.73 -0.77 0.84 -0.09 0.11 -0.34 0.39 -0.56 0.61 -0.22 0.23 -0.5 0.54 -0.63 0.68 -0.13 0.16 -0.45 0.5 -0.7 0.78 -0.74 0.81 -1.69 1.84 -1.88 2.07 -0.1 0.11 -0.46 0.51 -0.79 0.88 -0.33 0.37 -0.69 0.77 -0.79 0.88 -0.36 0.4 -1.16 1.29 -1.19 1.32 -0.08 0.08 -0.69 0.75 -1.04 1.14 -0.21 0.24 -0.46 0.51 -0.56 0.61 -0.1 0.09 -0.36 0.39 -0.59 0.65 -0.23 0.26 -0.43 0.49 -0.45 0.51 -0.02 0.02 -0.14 0.16 -0.27 0.3 -0.13 0.15 -0.4 0.44 -0.59 0.64 -0.19 0.2 -0.64 0.69 -0.98 1.08 -0.35 0.39 -0.8 0.89 -1.02 1.12 -0.22 0.22 -0.69 0.73 -1.04 1.12 -0.36 0.39 -1.16 1.26 -1.77 1.92 -0.61 0.67 -1.38 1.5 -1.7 1.86 -0.32 0.36 -0.68 0.76 -0.8 0.89 -0.12 0.13 -0.58 0.64 -1 1.12 -0.44 0.49 -0.97 1.06 -1.18 1.29 -0.22 0.22 -0.59 0.64 -0.84 0.91 -0.25 0.28 -0.63 0.69 -0.84 0.91 -0.21 0.22 -0.49 0.53 -0.63 0.67 -0.13 0.14 -0.27 0.3 -0.31 0.34 -0.04 0.04 -0.46 0.5 -0.93 1.02 -0.47 0.52 -1.07 1.17 -1.32 1.45 -0.25 0.28 -0.52 0.57 -0.59 0.64 -0.61 0.66 -1.98 2.27 -2.1 2.44 -0.07 0.12 -0.15 0.22 -0.17 0.24 -0.1 0.09 -0.42 0.63 -0.64 1.08 -0.43 0.87 -0.66 1.5 -0.9 2.41 -0.16 0.61 -0.17 17.57 -0.02 18.09 0.15 0.5 0.45 0.92 0.81 1.15 0.61 0.39 0.27 0.38 7.56 0.37 7.68 0 7.15 0.04 7.77 -0.6 0.63 -0.65 0.56 0.31 0.61 -9.9 0.05 -9.63 0.05 -9.75 0.41 -10.6 0.03 -0.07 0.14 -0.35 0.25 -0.61 0.37 -0.9 0.89 -1.61 2.08 -2.81 1.19 -1.21 4.14 -4.19 5.06 -5.12 0.48 -0.49 1.03 -1.04 1.22 -1.25 0.19 -0.2 0.61 -0.62 0.93 -0.95 1.07 -1.06 2.52 -2.53 3.66 -3.7 0.61 -0.63 1.53 -1.56 2.02 -2.05 1.55 -1.55 1.8 -1.81 2.22 -2.26 0.4 -0.42 0.8 -0.83 3.1 -3.14 2.05 -2.07 4.03 -4.07 5.19 -5.25 0.46 -0.47 1.31 -1.32 1.88 -1.9 0.58 -0.58 1.41 -1.42 1.85 -1.87 0.44 -0.45 1.19 -1.21 1.67 -1.69 0.48 -0.48 1.41 -1.43 2.05 -2.09 0.65 -0.67 1.62 -1.66 2.16 -2.2 0.54 -0.54 1.25 -1.26 1.58 -1.59 1.14 -1.17 2.13 -2.17 3.88 -3.93 3.76 -3.78 3.84 -3.87 3.84 -4.49 0 -0.49 -0.33 -1.02 -0.77 -1.25 -0.39 -0.19 -14.9 -0.19 -15.7 0 z M 54.64 47.54 c -0.33 0.08 -0.84 0.48 -1.57 1.25 -0.44 0.46 -0.88 0.91 -0.97 1 -0.1 0.1 -0.36 0.38 -0.59 0.62 -1.18 1.25 -2.16 2.26 -2.76 2.87 -0.36 0.37 -0.95 0.97 -1.29 1.31 -0.34 0.35 -0.98 1 -1.42 1.44 -0.95 0.96 -1.14 1.25 -1.17 1.92 -0.03 0.43 0 0.53 0.18 0.89 0.16 0.32 1.19 1.84 1.46 2.15 0.03 0.03 0.31 0.43 0.61 0.88 0.31 0.45 0.75 1.08 0.99 1.4 0.24 0.33 0.44 0.62 0.44 0.66 0 0.03 0.03 0.07 0.06 0.09 0.03 0 0.19 0.23 0.36 0.49 0.17 0.26 0.33 0.48 0.37 0.49 0.03 0.01 0.06 0.05 0.06 0.08 0 0.03 0.17 0.29 0.38 0.58 0.21 0.3 0.54 0.78 0.75 1.07 0.2 0.3 0.62 0.9 0.93 1.34 0.31 0.44 1.14 1.65 1.86 2.68 0.72 1.03 1.64 2.35 2.04 2.93 0.9 1.28 3.3 4.76 3.45 4.98 0.12 0.19 1.69 2.43 2.38 3.41 1.06 1.48 1.89 2.11 3.5 2.62 l 0.56 0.18 7.99 0 c 7.79 0 8 0 8.25 -0.13 0.9 -0.45 1.05 -1.31 0.4 -2.23 -0.35 -0.49 -2.23 -3.03 -2.35 -3.16 -0.03 -0.04 -0.25 -0.34 -0.49 -0.66 -0.24 -0.33 -0.76 -1.02 -1.16 -1.55 -0.86 -1.12 -0.98 -1.29 -1.23 -1.66 -0.1 -0.15 -0.45 -0.62 -0.78 -1.05 -0.33 -0.43 -1.25 -1.67 -2.05 -2.74 -0.8 -1.08 -1.67 -2.26 -1.94 -2.61 -0.26 -0.35 -0.58 -0.79 -0.7 -0.96 -0.13 -0.18 -0.71 -0.96 -1.3 -1.75 -0.59 -0.79 -1.22 -1.63 -1.39 -1.86 -0.61 -0.83 -2.12 -2.85 -2.44 -3.25 -0.18 -0.22 -0.34 -0.45 -0.37 -0.51 -0.02 -0.05 -0.23 -0.35 -0.46 -0.64 -0.23 -0.3 -0.48 -0.64 -0.56 -0.75 -0.08 -0.12 -0.34 -0.46 -0.58 -0.78 -1.18 -1.57 -1.93 -2.57 -2.28 -3.05 -0.21 -0.29 -0.51 -0.69 -0.67 -0.89 -0.26 -0.34 -0.44 -0.58 -1.27 -1.76 -0.17 -0.24 -0.33 -0.45 -0.36 -0.47 -0.03 -0.02 -0.11 -0.14 -0.19 -0.26 -0.43 -0.69 -2.83 -3.9 -3.15 -4.22 -0.45 -0.43 -0.91 -0.56 -1.49 -0.42 z" fill="#d4a054"/>
  </g>
</svg>
